<svg width="16" height="10" viewBox="0 0 16 10" fill="none" xmlns="http://www.w3.org/2000/svg">
<path d="M8.03358 6.3313L13.4095 0.95535C13.6941 0.672504 14.079 0.513744 14.4802 0.513744C14.8814 0.513744 15.2663 0.672504 15.5508 0.95535C15.6931 1.09653 15.8061 1.26449 15.8832 1.44955C15.9603 1.63461 16 1.8331 16 2.03358C16 2.23405 15.9603 2.43255 15.8832 2.61761C15.8061 2.80267 15.6931 2.97063 15.5508 3.1118L9.1118 9.55079C8.97063 9.69313 8.80267 9.80611 8.61761 9.88321C8.43255 9.96031 8.23405 10 8.03358 10C7.8331 10 7.63461 9.96031 7.44955 9.88321C7.26449 9.80611 7.09653 9.69313 6.95535 9.55079L0.44043 3.1118C0.299681 2.9699 0.188328 2.80161 0.112754 2.61659C0.03718 2.43156 -0.00112906 2.23344 2.58442e-05 2.03358C-0.00112905 1.83372 0.03718 1.63559 0.112754 1.45057C0.188328 1.26554 0.299681 1.09725 0.44043 0.95535C0.724963 0.672504 1.10986 0.513744 1.51106 0.513744C1.91226 0.513744 2.29716 0.672504 2.5817 0.95535L8.03358 6.3313Z" fill="#3247D5"/>
</svg>
