<svg width="14" height="14" viewBox="0 0 14 14" fill="none" xmlns="http://www.w3.org/2000/svg">
<path d="M11.9 0H2.1C1.54305 0 1.0089 0.221249 0.615076 0.615076C0.22125 1.0089 1.26615e-07 1.54304 1.26615e-07 2.1V2.919C-0.000100245 3.20806 0.0594765 3.49403 0.175 3.759V3.801C0.273896 4.02568 0.413975 4.22986 0.588 4.403L4.9 8.687V13.3C4.89976 13.419 4.92985 13.536 4.98741 13.6401C5.04497 13.7442 5.12812 13.8319 5.229 13.895C5.3404 13.964 5.46894 14.0004 5.6 14C5.70958 13.9993 5.81747 13.973 5.915 13.923L8.715 12.523C8.83044 12.4648 8.92752 12.3758 8.99547 12.2659C9.06343 12.1559 9.09961 12.0293 9.1 11.9V8.687L13.384 4.403C13.558 4.22986 13.6981 4.02568 13.797 3.801V3.759C13.9222 3.4961 13.9913 3.21004 14 2.919V2.1C14 1.54304 13.7788 1.0089 13.3849 0.615076C12.9911 0.221249 12.457 0 11.9 0ZM7.903 7.903C7.83812 7.96841 7.7868 8.04598 7.75196 8.13126C7.71712 8.21655 7.69947 8.30787 7.7 8.4V11.466L6.3 12.166V8.4C6.30053 8.30787 6.28287 8.21655 6.24804 8.13126C6.2132 8.04598 6.16188 7.96841 6.097 7.903L2.387 4.2H11.613L7.903 7.903ZM12.6 2.8H1.4V2.1C1.4 1.91435 1.47375 1.7363 1.60503 1.60502C1.7363 1.47375 1.91435 1.4 2.1 1.4H11.9C12.0857 1.4 12.2637 1.47375 12.395 1.60502C12.5263 1.7363 12.6 1.91435 12.6 2.1V2.8Z" fill="#3247D5"/>
</svg>
