<svg width="24" height="14" viewBox="0 0 24 14" fill="none" xmlns="http://www.w3.org/2000/svg">
<path fill-rule="evenodd" clip-rule="evenodd" d="M23.5199 7.18402C23.2753 7.54124 23.0559 7.91926 22.782 8.25231C21.3031 10.0502 19.575 11.5509 17.486 12.6084C16.0603 13.3301 14.5569 13.7901 12.9617 13.9414C9.86227 14.2354 7.05941 13.4126 4.49232 11.7003C2.82573 10.5887 1.4361 9.18707 0.224649 7.60108C-0.0740925 7.20993 -0.0749653 6.78621 0.222536 6.39675C1.62034 4.56723 3.25285 2.99407 5.24864 1.82248C6.89888 0.85373 8.6668 0.23838 10.58 0.0574997C13.3646 -0.205736 15.9366 0.441812 18.3292 1.85711C20.3076 3.02737 21.9238 4.59626 23.3074 6.41646C23.3976 6.53514 23.4499 6.68258 23.5199 6.81661C23.5199 6.93907 23.5199 7.06152 23.5199 7.18402ZM6.82374 6.84316C6.77395 9.6112 8.92012 11.8954 11.6144 11.9419C14.3563 11.9892 16.6513 9.82869 16.6988 7.15527C16.7481 4.38792 14.5987 2.1023 11.906 2.05871C9.15226 2.01411 6.87201 4.16074 6.82374 6.84316ZM11.8052 4.33748C10.3302 4.33018 9.11027 5.52147 9.10136 6.97793C9.09241 8.44605 10.2784 9.65475 11.7335 9.66044C13.2126 9.66623 14.419 8.4663 14.4246 6.98371C14.43 5.54724 13.2395 4.34451 11.8052 4.33748Z" fill="#3247D5"/>
</svg>
